<?xml version="1.0" encoding="UTF-8" standalone="no"?>
<!-- Generator: Adobe Illustrator 16.0.0, SVG Export Plug-In . SVG Version: 6.00 Build 0)  -->

<svg
   xmlns:dc="http://purl.org/dc/elements/1.1/"
   xmlns:cc="http://creativecommons.org/ns#"
   xmlns:rdf="http://www.w3.org/1999/02/22-rdf-syntax-ns#"
   xmlns:svg="http://www.w3.org/2000/svg"
   xmlns="http://www.w3.org/2000/svg"
   xmlns:sodipodi="http://sodipodi.sourceforge.net/DTD/sodipodi-0.dtd"
   xmlns:inkscape="http://www.inkscape.org/namespaces/inkscape"
   version="1.1"
   id="Layer_1"
   x="0px"
   y="0px"
   width="266.893px"
   height="266.895px"
   viewBox="0 0 266.893 266.895"
   enable-background="new 0 0 266.893 266.895"
   xml:space="preserve"
   inkscape:version="0.91 r13725"
   sodipodi:docname="F_icon.svg"><metadata
     id="metadata3437"><rdf:RDF><cc:Work
         rdf:about=""><dc:format>image/svg+xml</dc:format><dc:type
           rdf:resource="http://purl.org/dc/dcmitype/StillImage" /></cc:Work></rdf:RDF></metadata><defs
     id="defs3435" /><sodipodi:namedview
     pagecolor="#ffffff"
     bordercolor="#666666"
     borderopacity="1"
     objecttolerance="10"
     gridtolerance="10"
     guidetolerance="10"
     inkscape:pageopacity="0"
     inkscape:pageshadow="2"
     inkscape:window-width="1440"
     inkscape:window-height="843"
     id="namedview3433"
     showgrid="false"
     inkscape:zoom="2.4354148"
     inkscape:cx="164.15241"
     inkscape:cy="142.2871"
     inkscape:window-x="0"
     inkscape:window-y="28"
     inkscape:window-maximized="1"
     inkscape:current-layer="Layer_1" /><path
     d="M 18.8125 4.5878906 C 10.9555 4.5878906 4.5878906 10.9555 4.5878906 18.8125 L 4.5878906 248.08203 C 4.5878906 255.93703 10.9545 262.30664 18.8125 262.30664 L 142.24219 262.30664 L 142.24219 162.50391 L 108.6582 162.50391 L 108.6582 123.60938 L 142.24219 123.60938 L 142.24219 94.925781 C 142.24219 61.638781 162.57258 43.511719 192.26758 43.511719 C 206.49158 43.511719 218.7173 44.570922 222.2793 45.044922 L 222.2793 79.832031 L 201.68359 79.841797 C 185.53559 79.841797 182.4082 87.516344 182.4082 98.777344 L 182.4082 123.60938 L 220.92383 123.60938 L 215.9082 162.50391 L 182.4082 162.50391 L 182.4082 262.30664 L 248.08203 262.30664 C 255.93603 262.30664 262.30469 255.93803 262.30469 248.08203 L 262.30469 18.8125 C 262.30469 10.9555 255.93703 4.5878906 248.08203 4.5878906 L 18.8125 4.5878906 z "
     id="Blue_1_"
     style="fill:#cccccc;fill-opacity:1"
     inkscape:export-xdpi="9.0796652"
     inkscape:export-ydpi="9.0796652" /></svg>